<svg xmlns="http://www.w3.org/2000/svg" width="28" height="28.461" viewBox="0 0 28 28.461">
  <g id="Blue_point" data-name="Blue point" transform="translate(-0.117 -0.425)">
    <g id="Container" transform="translate(0.117 0.425)" fill="#c3d7ff" stroke="#c3d7ff" stroke-width="15">
      <circle cx="14" cy="14" r="14" stroke="none"/>
      <circle cx="14" cy="14" r="6.5" fill="none"/>
    </g>
    <path id="Subtraction_1" data-name="Subtraction 1" d="M1.164,27.4c-.319,0-.64-.011-.957-.034A13.309,13.309,0,0,0,8.928,23a13.8,13.8,0,0,0,3.56-9.286A13.634,13.634,0,0,0,0,.051C.385.017.776,0,1.164,0A13.411,13.411,0,0,1,2.539.071,13.165,13.165,0,0,1,5.162.616c.417.132.833.287,1.235.461A13.371,13.371,0,0,1,8.681,2.339a13.6,13.6,0,0,1,1.99,1.673,13.745,13.745,0,0,1,1.642,2.027,13.782,13.782,0,0,1,1.24,2.327c.17.41.322.834.452,1.259s.243.871.331,1.313.158.9.2,1.36.069.933.069,1.4-.023.938-.069,1.4-.114.913-.2,1.36-.2.883-.331,1.313-.282.848-.452,1.259a13.783,13.783,0,0,1-1.24,2.327,13.745,13.745,0,0,1-1.642,2.027,13.6,13.6,0,0,1-1.99,1.673A13.37,13.37,0,0,1,6.4,26.32c-.4.173-.818.328-1.235.461a13.165,13.165,0,0,1-2.624.545A13.413,13.413,0,0,1,1.164,27.4Z" transform="translate(12.616 1.49)" fill="#fff" opacity="0.41"/>
  </g>
</svg>
