<svg xmlns="http://www.w3.org/2000/svg" xmlns:xlink="http://www.w3.org/1999/xlink" width="390" height="29.461" viewBox="0 0 390 29.461">
  <defs>
    <clipPath id="clip-path">
      <circle id="Ellipse_3" data-name="Ellipse 3" cx="12.5" cy="12.5" r="12.5" transform="translate(-0.31 -0.476)" fill="#3f75e2" stroke="#707070" stroke-width="1"/>
    </clipPath>
    <linearGradient id="linear-gradient" x1="0.5" y1="0.745" x2="0.5" y2="0.015" gradientUnits="objectBoundingBox">
      <stop offset="0" stop-color="#ffa"/>
      <stop offset="1" stop-color="#ffa800"/>
    </linearGradient>
    <linearGradient id="linear-gradient-2" x1="0.5" y1="0.404" y2="0.015" xlink:href="#linear-gradient"/>
    <clipPath id="clip-path-2">
      <circle id="Ellipse_3-2" data-name="Ellipse 3" cx="12.5" cy="12.5" r="12.5" transform="translate(-0.222 -0.476)" fill="#3f75e2" stroke="#707070" stroke-width="1"/>
    </clipPath>
  </defs>
  <g id="Points" transform="translate(-234 -1296.539)">
    <g id="Group_197" data-name="Group 197" transform="translate(234.409 1297.114)">
      <g id="Container" transform="translate(-0.409 0.425)" fill="#c3d7ff" stroke="#c3d7ff" stroke-width="15">
        <ellipse cx="14.5" cy="14" rx="14.5" ry="14" stroke="none"/>
        <ellipse cx="14.5" cy="14" rx="7" ry="6.5" fill="none"/>
      </g>
      <g id="Pelota" transform="translate(1.901 1.9)">
        <g id="Water_back" data-name="Water back" transform="translate(0)" clip-path="url(#clip-path)">
          <g id="Water" transform="translate(-31.408 -2.154)">
            <path id="Path_5" data-name="Path 5" d="M-1.669-5.606,1.271,27.34l27.867-.033L34.87,9.855s6.166-8.149.929-7.266S24.574-6.986,19.224-6.859-1.669-5.606-1.669-5.606Z" transform="translate(26.496 6.86)" fill="url(#linear-gradient)"/>
            <path id="Path_6" data-name="Path 6" d="M0,4.25V22.087H27.792l.016-17.82S25.8-.779,20.56.1,12.88,8.626,7.53,8.753A8.353,8.353,0,0,1,0,4.25Z" transform="translate(0 12.114)" fill="url(#linear-gradient-2)"/>
          </g>
        </g>
      </g>
      <path id="Subtraction_1" data-name="Subtraction 1" d="M1.164,27.4c-.319,0-.64-.011-.957-.034A13.309,13.309,0,0,0,8.928,23a13.8,13.8,0,0,0,3.56-9.286A13.634,13.634,0,0,0,0,.051C.385.017.776,0,1.164,0A13.411,13.411,0,0,1,2.539.071,13.165,13.165,0,0,1,5.162.616c.417.132.833.287,1.235.461A13.371,13.371,0,0,1,8.681,2.339a13.6,13.6,0,0,1,1.99,1.673,13.745,13.745,0,0,1,1.642,2.027,13.782,13.782,0,0,1,1.24,2.327c.17.41.322.834.452,1.259s.243.871.331,1.313.158.9.2,1.36.069.933.069,1.4-.023.938-.069,1.4-.114.913-.2,1.36-.2.883-.331,1.313-.282.848-.452,1.259a13.783,13.783,0,0,1-1.24,2.327,13.745,13.745,0,0,1-1.642,2.027,13.6,13.6,0,0,1-1.99,1.673A13.37,13.37,0,0,1,6.4,26.32c-.4.173-.818.328-1.235.461a13.165,13.165,0,0,1-2.624.545A13.413,13.413,0,0,1,1.164,27.4Z" transform="translate(12.588 1.49)" fill="#fff" opacity="0.41"/>
    </g>
    <g id="Group_198" data-name="Group 198" transform="translate(274.321 1297.114)">
      <g id="Container-2" data-name="Container" transform="translate(-0.322 0.425)" fill="#c3d7ff" stroke="#c3d7ff" stroke-width="15">
        <ellipse cx="14.5" cy="14" rx="14.5" ry="14" stroke="none"/>
        <ellipse cx="14.5" cy="14" rx="7" ry="6.5" fill="none"/>
      </g>
      <g id="Pelota-2" data-name="Pelota" transform="translate(1.901 1.9)">
        <g id="Water_back-2" data-name="Water back" transform="translate(0)" clip-path="url(#clip-path-2)">
          <g id="Water-2" data-name="Water" transform="translate(-30.816 -2.154)">
            <path id="Path_5-2" data-name="Path 5" d="M-1.669-5.606,1.271,27.34l27.867-.033L34.87,9.855s6.166-8.149.929-7.266S24.574-6.986,19.224-6.859-1.669-5.606-1.669-5.606Z" transform="translate(26.496 6.86)" fill="url(#linear-gradient)"/>
            <path id="Path_6-2" data-name="Path 6" d="M0,4.25V22.087H27.792l.016-17.82S25.8-.779,20.56.1,12.88,8.626,7.53,8.753A8.353,8.353,0,0,1,0,4.25Z" transform="translate(0 12.114)" fill="url(#linear-gradient-2)"/>
          </g>
        </g>
      </g>
      <path id="Subtraction_1-2" data-name="Subtraction 1" d="M1.164,27.4c-.319,0-.64-.011-.957-.034A13.309,13.309,0,0,0,8.928,23a13.8,13.8,0,0,0,3.56-9.286A13.634,13.634,0,0,0,0,.051C.385.017.776,0,1.164,0A13.411,13.411,0,0,1,2.539.071,13.165,13.165,0,0,1,5.162.616c.417.132.833.287,1.235.461A13.371,13.371,0,0,1,8.681,2.339a13.6,13.6,0,0,1,1.99,1.673,13.745,13.745,0,0,1,1.642,2.027,13.782,13.782,0,0,1,1.24,2.327c.17.41.322.834.452,1.259s.243.871.331,1.313.158.9.2,1.36.069.933.069,1.4-.023.938-.069,1.4-.114.913-.2,1.36-.2.883-.331,1.313-.282.848-.452,1.259a13.783,13.783,0,0,1-1.24,2.327,13.745,13.745,0,0,1-1.642,2.027,13.6,13.6,0,0,1-1.99,1.673A13.37,13.37,0,0,1,6.4,26.32c-.4.173-.818.328-1.235.461a13.165,13.165,0,0,1-2.624.545A13.413,13.413,0,0,1,1.164,27.4Z" transform="translate(13.179 1.49)" fill="#fff" opacity="0.41"/>
    </g>
    <g id="Group_199" data-name="Group 199" transform="translate(473.883 1297.114)">
      <g id="Container-3" data-name="Container" transform="translate(0.117 0.425)" fill="#c3d7ff" stroke="#c3d7ff" stroke-width="15">
        <circle cx="14" cy="14" r="14" stroke="none"/>
        <circle cx="14" cy="14" r="6.5" fill="none"/>
      </g>
      <path id="Subtraction_1-3" data-name="Subtraction 1" d="M1.164,27.4c-.319,0-.64-.011-.957-.034A13.309,13.309,0,0,0,8.928,23a13.8,13.8,0,0,0,3.56-9.286A13.634,13.634,0,0,0,0,.051C.385.017.776,0,1.164,0A13.411,13.411,0,0,1,2.539.071,13.165,13.165,0,0,1,5.162.616c.417.132.833.287,1.235.461A13.371,13.371,0,0,1,8.681,2.339a13.6,13.6,0,0,1,1.99,1.673,13.745,13.745,0,0,1,1.642,2.027,13.782,13.782,0,0,1,1.24,2.327c.17.41.322.834.452,1.259s.243.871.331,1.313.158.9.2,1.36.069.933.069,1.4-.023.938-.069,1.4-.114.913-.2,1.36-.2.883-.331,1.313-.282.848-.452,1.259a13.783,13.783,0,0,1-1.24,2.327,13.745,13.745,0,0,1-1.642,2.027,13.6,13.6,0,0,1-1.99,1.673A13.37,13.37,0,0,1,6.4,26.32c-.4.173-.818.328-1.235.461a13.165,13.165,0,0,1-2.624.545A13.413,13.413,0,0,1,1.164,27.4Z" transform="translate(12.616 1.49)" fill="#fff" opacity="0.41"/>
    </g>
    <g id="Group_200" data-name="Group 200" transform="translate(513.795 1297.114)">
      <g id="Container-4" data-name="Container" transform="translate(0.205 0.425)" fill="#c3d7ff" stroke="#c3d7ff" stroke-width="15">
        <circle cx="14" cy="14" r="14" stroke="none"/>
        <circle cx="14" cy="14" r="6.5" fill="none"/>
      </g>
      <path id="Subtraction_1-4" data-name="Subtraction 1" d="M1.164,27.4c-.319,0-.64-.011-.957-.034A13.309,13.309,0,0,0,8.928,23a13.8,13.8,0,0,0,3.56-9.286A13.634,13.634,0,0,0,0,.051C.385.017.776,0,1.164,0A13.411,13.411,0,0,1,2.539.071,13.165,13.165,0,0,1,5.162.616c.417.132.833.287,1.235.461A13.371,13.371,0,0,1,8.681,2.339a13.6,13.6,0,0,1,1.99,1.673,13.745,13.745,0,0,1,1.642,2.027,13.782,13.782,0,0,1,1.24,2.327c.17.41.322.834.452,1.259s.243.871.331,1.313.158.9.2,1.36.069.933.069,1.4-.023.938-.069,1.4-.114.913-.2,1.36-.2.883-.331,1.313-.282.848-.452,1.259a13.783,13.783,0,0,1-1.24,2.327,13.745,13.745,0,0,1-1.642,2.027,13.6,13.6,0,0,1-1.99,1.673A13.37,13.37,0,0,1,6.4,26.32c-.4.173-.818.328-1.235.461a13.165,13.165,0,0,1-2.624.545A13.413,13.413,0,0,1,1.164,27.4Z" transform="translate(13.208 1.49)" fill="#fff" opacity="0.41"/>
    </g>
    <g id="Group_201" data-name="Group 201" transform="translate(553.708 1297.114)">
      <g id="Container-5" data-name="Container" transform="translate(0.293 0.425)" fill="#c3d7ff" stroke="#c3d7ff" stroke-width="15">
        <circle cx="14" cy="14" r="14" stroke="none"/>
        <circle cx="14" cy="14" r="6.5" fill="none"/>
      </g>
      <path id="Subtraction_1-5" data-name="Subtraction 1" d="M1.164,27.4c-.319,0-.64-.011-.957-.034A13.309,13.309,0,0,0,8.928,23a13.8,13.8,0,0,0,3.56-9.286A13.634,13.634,0,0,0,0,.051C.385.017.776,0,1.164,0A13.411,13.411,0,0,1,2.539.071,13.165,13.165,0,0,1,5.162.616c.417.132.833.287,1.235.461A13.371,13.371,0,0,1,8.681,2.339a13.6,13.6,0,0,1,1.99,1.673,13.745,13.745,0,0,1,1.642,2.027,13.782,13.782,0,0,1,1.24,2.327c.17.41.322.834.452,1.259s.243.871.331,1.313.158.9.2,1.36.069.933.069,1.4-.023.938-.069,1.4-.114.913-.2,1.36-.2.883-.331,1.313-.282.848-.452,1.259a13.783,13.783,0,0,1-1.24,2.327,13.745,13.745,0,0,1-1.642,2.027,13.6,13.6,0,0,1-1.99,1.673A13.37,13.37,0,0,1,6.4,26.32c-.4.173-.818.328-1.235.461a13.165,13.165,0,0,1-2.624.545A13.413,13.413,0,0,1,1.164,27.4Z" transform="translate(13.8 1.49)" fill="#fff" opacity="0.41"/>
    </g>
    <g id="Group_202" data-name="Group 202" transform="translate(595.521 1297.114)">
      <g id="Container-6" data-name="Container" transform="translate(0.48 0.425)" fill="#c3d7ff" stroke="#c3d7ff" stroke-width="15">
        <circle cx="14" cy="14" r="14" stroke="none"/>
        <circle cx="14" cy="14" r="6.5" fill="none"/>
      </g>
      <path id="Subtraction_1-6" data-name="Subtraction 1" d="M1.164,27.4c-.319,0-.64-.011-.957-.034A13.309,13.309,0,0,0,8.928,23a13.8,13.8,0,0,0,3.56-9.286A13.634,13.634,0,0,0,0,.051C.385.017.776,0,1.164,0A13.411,13.411,0,0,1,2.539.071,13.165,13.165,0,0,1,5.162.616c.417.132.833.287,1.235.461A13.371,13.371,0,0,1,8.681,2.339a13.6,13.6,0,0,1,1.99,1.673,13.745,13.745,0,0,1,1.642,2.027,13.782,13.782,0,0,1,1.24,2.327c.17.41.322.834.452,1.259s.243.871.331,1.313.158.9.2,1.36.069.933.069,1.4-.023.938-.069,1.4-.114.913-.2,1.36-.2.883-.331,1.313-.282.848-.452,1.259a13.783,13.783,0,0,1-1.24,2.327,13.745,13.745,0,0,1-1.642,2.027,13.6,13.6,0,0,1-1.99,1.673A13.37,13.37,0,0,1,6.4,26.32c-.4.173-.818.328-1.235.461a13.165,13.165,0,0,1-2.624.545A13.413,13.413,0,0,1,1.164,27.4Z" transform="translate(12.491 1.49)" fill="#fff" opacity="0.41"/>
    </g>
    <g id="Group_203" data-name="Group 203" transform="translate(315.883 1296.114)">
      <g id="Container-7" data-name="Container" transform="translate(0.117 0.425)" fill="#c3d7ff" stroke="#c3d7ff" stroke-width="15">
        <circle cx="14" cy="14" r="14" stroke="none"/>
        <circle cx="14" cy="14" r="6.5" fill="none"/>
      </g>
      <path id="Subtraction_1-7" data-name="Subtraction 1" d="M1.164,27.4c-.319,0-.64-.011-.957-.034A13.309,13.309,0,0,0,8.928,23a13.8,13.8,0,0,0,3.56-9.286A13.634,13.634,0,0,0,0,.051C.385.017.776,0,1.164,0A13.411,13.411,0,0,1,2.539.071,13.165,13.165,0,0,1,5.162.616c.417.132.833.287,1.235.461A13.371,13.371,0,0,1,8.681,2.339a13.6,13.6,0,0,1,1.99,1.673,13.745,13.745,0,0,1,1.642,2.027,13.782,13.782,0,0,1,1.24,2.327c.17.41.322.834.452,1.259s.243.871.331,1.313.158.9.2,1.36.069.933.069,1.4-.023.938-.069,1.4-.114.913-.2,1.36-.2.883-.331,1.313-.282.848-.452,1.259a13.783,13.783,0,0,1-1.24,2.327,13.745,13.745,0,0,1-1.642,2.027,13.6,13.6,0,0,1-1.99,1.673A13.37,13.37,0,0,1,6.4,26.32c-.4.173-.818.328-1.235.461a13.165,13.165,0,0,1-2.624.545A13.413,13.413,0,0,1,1.164,27.4Z" transform="translate(12.616 1.49)" fill="#fff" opacity="0.41"/>
    </g>
    <g id="Group_204" data-name="Group 204" transform="translate(355.795 1296.114)">
      <g id="Container-8" data-name="Container" transform="translate(0.205 0.425)" fill="#c3d7ff" stroke="#c3d7ff" stroke-width="15">
        <circle cx="14" cy="14" r="14" stroke="none"/>
        <circle cx="14" cy="14" r="6.5" fill="none"/>
      </g>
      <path id="Subtraction_1-8" data-name="Subtraction 1" d="M1.164,27.4c-.319,0-.64-.011-.957-.034A13.309,13.309,0,0,0,8.928,23a13.8,13.8,0,0,0,3.56-9.286A13.634,13.634,0,0,0,0,.051C.385.017.776,0,1.164,0A13.411,13.411,0,0,1,2.539.071,13.165,13.165,0,0,1,5.162.616c.417.132.833.287,1.235.461A13.371,13.371,0,0,1,8.681,2.339a13.6,13.6,0,0,1,1.99,1.673,13.745,13.745,0,0,1,1.642,2.027,13.782,13.782,0,0,1,1.24,2.327c.17.41.322.834.452,1.259s.243.871.331,1.313.158.9.2,1.36.069.933.069,1.4-.023.938-.069,1.4-.114.913-.2,1.36-.2.883-.331,1.313-.282.848-.452,1.259a13.783,13.783,0,0,1-1.24,2.327,13.745,13.745,0,0,1-1.642,2.027,13.6,13.6,0,0,1-1.99,1.673A13.37,13.37,0,0,1,6.4,26.32c-.4.173-.818.328-1.235.461a13.165,13.165,0,0,1-2.624.545A13.413,13.413,0,0,1,1.164,27.4Z" transform="translate(13.208 1.49)" fill="#fff" opacity="0.41"/>
    </g>
    <g id="Group_205" data-name="Group 205" transform="translate(395.708 1296.114)">
      <g id="Container-9" data-name="Container" transform="translate(0.293 0.425)" fill="#c3d7ff" stroke="#c3d7ff" stroke-width="15">
        <circle cx="14" cy="14" r="14" stroke="none"/>
        <circle cx="14" cy="14" r="6.5" fill="none"/>
      </g>
      <path id="Subtraction_1-9" data-name="Subtraction 1" d="M1.164,27.4c-.319,0-.64-.011-.957-.034A13.309,13.309,0,0,0,8.928,23a13.8,13.8,0,0,0,3.56-9.286A13.634,13.634,0,0,0,0,.051C.385.017.776,0,1.164,0A13.411,13.411,0,0,1,2.539.071,13.165,13.165,0,0,1,5.162.616c.417.132.833.287,1.235.461A13.371,13.371,0,0,1,8.681,2.339a13.6,13.6,0,0,1,1.99,1.673,13.745,13.745,0,0,1,1.642,2.027,13.782,13.782,0,0,1,1.24,2.327c.17.41.322.834.452,1.259s.243.871.331,1.313.158.9.2,1.36.069.933.069,1.4-.023.938-.069,1.4-.114.913-.2,1.36-.2.883-.331,1.313-.282.848-.452,1.259a13.783,13.783,0,0,1-1.24,2.327,13.745,13.745,0,0,1-1.642,2.027,13.6,13.6,0,0,1-1.99,1.673A13.37,13.37,0,0,1,6.4,26.32c-.4.173-.818.328-1.235.461a13.165,13.165,0,0,1-2.624.545A13.413,13.413,0,0,1,1.164,27.4Z" transform="translate(13.8 1.49)" fill="#fff" opacity="0.41"/>
    </g>
    <g id="Group_206" data-name="Group 206" transform="translate(437.521 1296.114)">
      <g id="Container-10" data-name="Container" transform="translate(0.48 0.425)" fill="#c3d7ff" stroke="#c3d7ff" stroke-width="15">
        <circle cx="14" cy="14" r="14" stroke="none"/>
        <circle cx="14" cy="14" r="6.5" fill="none"/>
      </g>
      <path id="Subtraction_1-10" data-name="Subtraction 1" d="M1.164,27.4c-.319,0-.64-.011-.957-.034A13.309,13.309,0,0,0,8.928,23a13.8,13.8,0,0,0,3.56-9.286A13.634,13.634,0,0,0,0,.051C.385.017.776,0,1.164,0A13.411,13.411,0,0,1,2.539.071,13.165,13.165,0,0,1,5.162.616c.417.132.833.287,1.235.461A13.371,13.371,0,0,1,8.681,2.339a13.6,13.6,0,0,1,1.99,1.673,13.745,13.745,0,0,1,1.642,2.027,13.782,13.782,0,0,1,1.24,2.327c.17.41.322.834.452,1.259s.243.871.331,1.313.158.9.2,1.36.069.933.069,1.4-.023.938-.069,1.4-.114.913-.2,1.36-.2.883-.331,1.313-.282.848-.452,1.259a13.783,13.783,0,0,1-1.24,2.327,13.745,13.745,0,0,1-1.642,2.027,13.6,13.6,0,0,1-1.99,1.673A13.37,13.37,0,0,1,6.4,26.32c-.4.173-.818.328-1.235.461a13.165,13.165,0,0,1-2.624.545A13.413,13.413,0,0,1,1.164,27.4Z" transform="translate(12.491 1.49)" fill="#fff" opacity="0.41"/>
    </g>
  </g>
</svg>
